<svg width="28" height="33" viewBox="0 0 28 33" fill="none" xmlns="http://www.w3.org/2000/svg">
<path d="M13.8171 28.6275C17.2484 25.5475 19.7937 22.7494 21.4531 20.2331C23.1125 17.7169 23.9421 15.4825 23.9421 13.53C23.9421 10.5325 22.9648 8.07812 21.0101 6.16687C19.0554 4.25562 16.6578 3.3 13.8171 3.3C10.9765 3.3 8.57886 4.25562 6.62417 6.16687C4.66948 8.07812 3.69214 10.5325 3.69214 13.53C3.69214 15.4825 4.52183 17.7169 6.1812 20.2331C7.84058 22.7494 10.3859 25.5475 13.8171 28.6275ZM13.8171 33C9.28901 29.2325 5.90698 25.7331 3.67105 22.5019C1.43511 19.2706 0.317139 16.28 0.317139 13.53C0.317139 9.405 1.67417 6.11875 4.38823 3.67125C7.1023 1.22375 10.2453 0 13.8171 0C17.389 0 20.532 1.22375 23.246 3.67125C25.9601 6.11875 27.3171 9.405 27.3171 13.53C27.3171 16.28 26.1992 19.2706 23.9632 22.5019C21.7273 25.7331 18.3453 29.2325 13.8171 33Z" fill="#703748"/>
<path d="M9.98511 12.5812C9.64058 12.5812 9.34937 12.4649 9.11147 12.2323C8.87358 11.9997 8.75464 11.715 8.75464 11.3781C8.75464 11.0412 8.87358 10.7565 9.11147 10.5239C9.34937 10.2913 9.64058 10.175 9.98511 10.175C10.3296 10.175 10.6208 10.2913 10.8587 10.5239C11.0966 10.7565 11.2156 11.0412 11.2156 11.3781C11.2156 11.715 11.0966 11.9997 10.8587 12.2323C10.6208 12.4649 10.3296 12.5812 9.98511 12.5812ZM12.2 10.6562C11.8554 10.6562 11.5642 10.5399 11.3263 10.3073C11.0884 10.0747 10.9695 9.79 10.9695 9.45312C10.9695 9.11625 11.0884 8.83151 11.3263 8.59891C11.5642 8.3663 11.8554 8.25 12.2 8.25C12.5445 8.25 12.8357 8.3663 13.0736 8.59891C13.3115 8.83151 13.4304 9.11625 13.4304 9.45312C13.4304 9.79 13.3115 10.0747 13.0736 10.3073C12.8357 10.5399 12.5445 10.6562 12.2 10.6562ZM15.1531 10.6562C14.8085 10.6562 14.5173 10.5399 14.2794 10.3073C14.0416 10.0747 13.9226 9.79 13.9226 9.45312C13.9226 9.11625 14.0416 8.83151 14.2794 8.59891C14.5173 8.3663 14.8085 8.25 15.1531 8.25C15.4976 8.25 15.7888 8.3663 16.0267 8.59891C16.2646 8.83151 16.3835 9.11625 16.3835 9.45312C16.3835 9.79 16.2646 10.0747 16.0267 10.3073C15.7888 10.5399 15.4976 10.6562 15.1531 10.6562ZM17.3679 12.5812C17.0234 12.5812 16.7322 12.4649 16.4943 12.2323C16.2564 11.9997 16.1375 11.715 16.1375 11.3781C16.1375 11.0412 16.2564 10.7565 16.4943 10.5239C16.7322 10.2913 17.0234 10.175 17.3679 10.175C17.7125 10.175 18.0037 10.2913 18.2416 10.5239C18.4794 10.7565 18.5984 11.0412 18.5984 11.3781C18.5984 11.715 18.4794 11.9997 18.2416 12.2323C18.0037 12.4649 17.7125 12.5812 17.3679 12.5812ZM11.0433 17.3937C10.6742 17.3937 10.3645 17.2554 10.1143 16.9787C9.86411 16.702 9.73901 16.3751 9.73901 15.9981C9.73901 15.581 9.88462 15.2161 10.1758 14.9033C10.467 14.5905 10.7562 14.2817 11.0433 13.9769C11.2812 13.7282 11.4863 13.4575 11.6585 13.1648C11.8308 12.872 12.0359 12.5973 12.2738 12.3406C12.4542 12.1321 12.6634 11.9596 12.9013 11.8233C13.1392 11.6869 13.3976 11.6187 13.6765 11.6187C13.9554 11.6187 14.2138 11.6829 14.4517 11.8112C14.6896 11.9396 14.8988 12.108 15.0792 12.3166C15.3089 12.5732 15.512 12.8499 15.6883 13.1467C15.8647 13.4435 16.0718 13.7202 16.3097 13.9769C16.5968 14.2817 16.886 14.5905 17.1772 14.9033C17.4684 15.2161 17.614 15.581 17.614 15.9981C17.614 16.3751 17.4889 16.702 17.2387 16.9787C16.9885 17.2554 16.6789 17.3937 16.3097 17.3937C15.8667 17.3937 15.4279 17.3577 14.9931 17.2855C14.5583 17.2133 14.1195 17.1772 13.6765 17.1772C13.2335 17.1772 12.7947 17.2133 12.3599 17.2855C11.9251 17.3577 11.4863 17.3937 11.0433 17.3937Z" fill="#703748"/>
</svg>
