<svg width="123" height="130" viewBox="0 0 123 130" fill="none" xmlns="http://www.w3.org/2000/svg">
<path d="M24.7657 73.3703C27.3795 72.7698 39.3582 49.3689 39.3582 49.3689L23.7067 65.93M20.7345 73.5059L16.071 77.4425C16.2437 79.8069 15.124 84.5462 11.3618 85.7367C7.91584 86.8271 4.18382 85.8756 2.50304 82.8319C0.723901 79.61 2.35175 75.8155 5.79484 74.0729C9.7269 72.0828 12.9046 74.2179 13.4914 74.7747C14.0782 75.3315 18.3874 71.2788 18.3874 71.2788M5.81618 79.271C5.76428 80.6853 6.06559 82.1942 8.43677 83.1863M25.7439 87.8217C26.9542 88.86 29.276 88.7677 30.1356 87.2127M20.3709 43.9708C20.3709 43.9708 16.5682 69.6133 18.3526 71.4429C18.9393 72.0444 19.9579 72.5234 19.9579 72.5234L21.5633 73.604L23.0847 79.263C21.5719 81.1513 19.7359 85.681 22.1151 88.5871C24.2943 91.2489 27.8862 92.2748 31.0292 90.6593C34.4236 88.9147 35.2235 84.8721 33.4251 81.6667C31.3712 78.0061 27.5394 78.1764 26.7375 78.3437C25.9356 78.511 24.7707 72.9348 24.7707 72.9348L20.3709 43.9708Z" stroke="#FFDE59" stroke-width="3" stroke-linecap="round" stroke-linejoin="round"/>
<path fill-rule="evenodd" clip-rule="evenodd" d="M33.3814 13.7253C32.1251 13.1525 30.6423 13.7065 30.0694 14.9628C29.4966 16.219 30.0506 17.7018 31.3069 18.2747L34.874 19.9013C36.1303 20.4741 37.6131 19.9201 38.1859 18.6638C38.7588 17.4075 38.2048 15.9248 36.9485 15.3519L33.3814 13.7253ZM42.8015 17.3866C41.5311 16.8459 40.0629 17.4375 39.5222 18.7079C38.9815 19.9784 39.5731 21.4466 40.8435 21.9873L46.9586 24.5898C48.229 25.1305 49.6973 24.5389 50.2379 23.2685C50.7786 21.998 50.187 20.5298 48.9166 19.9891L42.8015 17.3866ZM84.3155 21.6373L84.3149 21.6372L84.3148 21.6372C79.4602 21.5199 70.1681 21.2953 64.2841 21.404C63.1013 21.4259 62.1877 22.0693 61.6806 22.9342H57.2786C57.0307 22.9342 56.5781 22.9433 56.0718 23.0846C54.2639 23.5895 51.7695 25.4032 51.6558 29.1538C51.5383 33.0268 54.1932 34.9022 55.9688 35.4475L56.7028 33.0577L55.9688 35.4475C56.5221 35.6174 57.0228 35.6333 57.3223 35.6333H61.9066C62.711 37.0285 64.178 38.019 65.9771 38.019H67.2822C66.4749 39.4123 65.2652 40.5145 63.8498 41.3825C61.6383 42.7386 59.1239 43.3851 57.5592 43.5516C56.1862 43.6977 55.1916 44.9291 55.3377 46.302C55.4838 47.675 56.7152 48.6696 58.0882 48.5235C60.0936 48.3102 63.0212 47.5786 65.7794 46.0445C62.9063 48.3546 59.8926 52.1343 57.3684 57.5977C53.572 65.8143 50.7728 78.0397 51.1456 95.5389C51.2039 98.2733 52.0118 100.532 53.4817 102.136C54.9563 103.745 56.9172 104.492 58.8429 104.492H93.6327C94.9635 104.555 96.8775 104.249 98.5288 103.043C100.356 101.709 101.552 99.4959 101.498 96.4181C101.492 96.0652 101.491 95.5816 101.489 94.9833C101.478 90.8095 101.452 81.0575 99.662 71.2093C98.6381 65.5746 97.0139 59.7577 94.3973 54.8454C92.053 50.4443 88.8261 46.616 84.3847 44.4106C84.5161 43.0022 84.9513 41.2767 85.6303 39.7312C86.0854 38.6954 86.5824 37.8994 87.0296 37.4061C87.2704 37.1406 87.4238 37.0387 87.4862 37.0039C90.2094 36.9843 92.485 36.2107 94.0832 34.7264C95.7178 33.2083 96.4035 31.1605 96.2557 29.1684C95.9604 25.1879 92.4594 21.7026 87.38 21.7025C87.0164 21.7025 85.9034 21.6756 84.3155 21.6373ZM57.3291 27.9342H61.2349V30.6333H57.3443C57.2119 30.5759 57.0493 30.473 56.9249 30.3254C56.8109 30.1902 56.635 29.9157 56.6535 29.3053C56.6738 28.6338 56.8767 28.3262 57 28.1846C57.1124 28.0555 57.2391 27.9763 57.3291 27.9342ZM66.2349 33.019V26.3799C71.8394 26.3387 79.1544 26.5161 83.6152 26.6242L83.6153 26.6242C85.4802 26.6694 86.8463 26.7025 87.3799 26.7025C90.0463 26.7026 91.1826 28.368 91.2694 29.5384C91.3127 30.1217 91.1258 30.6493 90.6806 31.0628C90.2197 31.4908 89.247 32.0043 87.3799 32.0043C85.5822 32.0043 84.2105 33.0716 83.3255 34.0476C82.3958 35.073 81.638 36.3877 81.0526 37.7201C80.2761 39.4875 79.6822 41.57 79.4498 43.5376H73.1654L73.1654 35.9529V35.9528C73.1654 34.4808 72.0074 33.019 70.2577 33.019H66.2349ZM71.1407 48.5376H81.3939C84.981 50.0481 87.7916 53.0795 89.9843 57.196C92.263 61.4739 93.7664 66.7313 94.7426 72.1032C96.443 81.46 96.474 90.7069 96.4883 94.954C96.4904 95.5878 96.4921 96.1103 96.499 96.5051C96.527 98.1119 95.9728 98.7185 95.5802 99.0052C95.0466 99.3949 94.3163 99.5247 93.8492 99.4965C93.7991 99.4935 93.749 99.492 93.6989 99.492H58.8429C58.2205 99.492 57.631 99.2631 57.168 98.7578C56.7002 98.2473 56.1833 97.2525 56.1445 95.4324C55.7835 78.4915 58.5048 67.0591 61.9073 59.6949C65.1583 52.6586 68.9384 49.5026 71.1407 48.5376ZM30 27.0549C28.6193 27.0549 27.5 28.1741 27.5 29.5549C27.5 30.9356 28.6193 32.0549 30 32.0549H33.3633C34.744 32.0549 35.8633 30.9356 35.8633 29.5549C35.8633 28.1741 34.744 27.0549 33.3633 27.0549H30ZM39.0707 27.0549C37.69 27.0549 36.5707 28.1741 36.5707 29.5549C36.5707 30.9356 37.69 32.0549 39.0707 32.0549H46.7146C48.0953 32.0549 49.2146 30.9356 49.2146 29.5549C49.2146 28.1741 48.0953 27.0549 46.7146 27.0549H39.0707ZM48.8985 39.2367C50.1732 38.706 50.7763 37.2425 50.2456 35.9678C49.7149 34.6932 48.2514 34.0901 46.9767 34.6207L39.9444 37.5486C38.9855 37.9478 38.4067 38.8748 38.4046 39.8523C37.7271 38.9682 36.514 38.618 35.4418 39.0744L31.3651 40.8094C30.0947 41.3501 29.5031 42.8183 30.0438 44.0887C30.5845 45.3592 32.0527 45.9508 33.3231 45.4101L37.3999 43.675C38.3491 43.271 38.9194 42.3492 38.9215 41.379C39.5943 42.2569 40.7967 42.6098 41.8661 42.1645L48.8985 39.2367ZM83.5364 69.8354C83.27 71.7477 81.8241 73.1536 80.307 72.9755C78.7899 72.7973 77.776 71.1027 78.0425 69.1904C78.3089 67.278 79.7548 65.8722 81.2719 66.0503C82.7891 66.2284 83.8029 67.9231 83.5364 69.8354ZM74.4865 72.932C75.9872 72.6584 76.8757 70.9036 76.4709 69.0125C76.0662 67.1214 74.5215 65.8102 73.0208 66.0838C71.5201 66.3574 70.6317 68.1123 71.0364 70.0034C71.4412 71.8945 72.9858 73.2057 74.4865 72.932ZM71.3846 74.5149C71.7434 76.4139 70.8127 78.1501 69.3057 78.3928C67.7988 78.6355 66.2863 77.2928 65.9275 75.3939C65.5687 73.4949 66.4994 71.7587 68.0064 71.516C69.5133 71.2733 71.0258 72.6159 71.3846 74.5149ZM76.3251 75.7101C80.8206 75.4852 85.4178 82.6172 83.3499 84.7947C82.1612 86.0465 81.0395 85.4132 79.8326 84.7318C78.9401 84.2279 78.001 83.6977 76.9537 83.8841C76.3492 83.9918 75.6462 84.2051 74.9214 84.4251C72.6925 85.1015 70.2576 85.8405 69.8469 83.7596C69.3026 81.0019 72.1662 75.9182 76.3251 75.7101ZM84.3658 78.4427C85.8214 78.874 87.5225 77.736 88.1652 75.9008C88.8078 74.0656 88.1488 72.2282 86.6931 71.7968C85.2374 71.3655 83.5363 72.5035 82.8937 74.3387C82.251 76.1739 82.9101 78.0113 84.3658 78.4427Z" fill="#FFDE59"/>
</svg>
