<svg width="88" height="91" viewBox="0 0 88 91" fill="none" xmlns="http://www.w3.org/2000/svg">
<path d="M3.2952 88.3129C3.22361 83.6885 5.33476 72.6597 14.673 67.3091C17.1609 65.8836 19.0512 64.8899 20.6299 64.101M20.6299 71.8704C18.0763 71.8704 15.1682 74.2981 14.9961 76.7071C14.824 79.1161 14.9961 84.2956 14.9961 85.7202C14.9961 86.8698 15.6831 88.3129 17.0348 88.3129M20.6299 71.8704C23.1834 71.8704 26.145 73.8679 26.2311 76.7071C26.3171 79.5462 26.2311 84.5905 26.2311 85.7202C26.2311 86.8499 25.5663 88.3129 24.2367 88.3129M20.6299 71.8704V64.101M85.2778 87.3268C84.9413 75.4461 77.7667 69.6757 73.7999 67.2311C72.4324 66.3884 70.2122 65.2508 68.091 64.2019M68.091 78.3695C65.4793 78.6649 63.8284 80.3226 63.8284 82.951C63.8284 85.4105 65.7056 87.2972 68.091 87.3268C70.5059 87.3568 72.4608 85.366 72.4608 82.951C72.4608 80.395 70.7358 78.6029 68.091 78.3695ZM68.091 78.3695V64.2019M28.0338 28.5267V40.0914M28.0338 28.5267C28.0338 28.5267 25.1395 28.2171 23.175 29.7253M28.0338 28.5267C30.0201 28.2524 34.3735 27.0387 35.8961 24.3789M60.3206 28.5267L59.9684 40.0914M60.3206 28.5267C60.3206 28.5267 63.4274 28.2809 65.2692 30.1369M60.3206 28.5267C57.1457 28.3657 50.3455 27.9857 48.5433 27.7547C46.2906 27.4659 38.7236 25.9063 37.7994 25.2709C37.2785 24.9127 36.5923 24.5912 35.8961 24.3789M28.0338 40.0914V41.4394C28.0338 44.3253 30.774 49.4793 35.9593 52.3008M28.0338 40.0914C28.0338 40.0914 21.4021 39.9004 21.4021 33.777C21.4021 31.7544 22.1659 30.5 23.175 29.7253M59.9684 40.0914L59.9273 41.4394C59.9273 43.0138 57.9144 48.5799 52.7293 51.8445M59.9684 40.0914C59.9684 40.0914 66.5964 39.5238 66.5964 33.777C66.5964 32.0736 66.045 30.9187 65.2692 30.1369M23.175 29.7253L22.9479 17.6716C22.9479 14.408 26.7233 11.9957 29.774 11.9957M29.774 11.9957C29.774 11.9957 29.774 8.59019 32.4701 5.68129C34.1455 3.87361 35.8047 2.70143 39.565 2.70143H51.1296C55.0318 2.70143 57.745 4.30957 60.3206 6.60361C63.0465 9.03161 65.2692 11.208 65.2692 17.6716V30.1369M29.774 11.9957C29.774 13.8877 29.774 16.7678 29.774 17.6716C29.774 20.0976 32.2542 24.1156 34.3337 24.1156C34.8125 24.1156 35.3573 24.2146 35.8961 24.3789M52.7293 51.8445C50.4371 53.2877 47.525 54.2811 43.8928 54.2811C40.82 54.2811 38.1679 53.5025 35.9593 52.3008M52.7293 51.8445V55.2418L59.4296 59.0706L58.9588 60.2099M35.9593 52.3008V55.2418L28.9527 59.0706L29.3691 59.9703M58.9588 60.2099L57.5152 63.7034L43.8928 76.7071L31.0968 63.7034L29.3691 59.9703M58.9588 60.2099L60.3206 60.7816L65.5747 62.972C66.3515 63.3486 67.2128 63.7677 68.091 64.2019M29.3691 59.9703L27.5999 60.7816C27.5999 60.7816 26.3085 61.3648 22.9479 62.972C22.2355 63.3127 21.4776 63.6773 20.6299 64.101" stroke="#FFDE59" stroke-width="5" stroke-linecap="round" stroke-linejoin="round"/>
</svg>
