<svg width="83" height="80" viewBox="0 0 83 80" fill="none" xmlns="http://www.w3.org/2000/svg">
<path fill-rule="evenodd" clip-rule="evenodd" d="M20.1332 5.66452C19.1374 3.9196 17.5882 2.33556 15.5111 1.50997C13.35 0.65103 10.9315 0.743902 8.61048 1.87305C4.66446 3.79276 2.47488 7.74126 3.11492 11.9565C-0.176947 18.9199 0.0973358 27.4104 2.91164 34.579C5.5915 41.4051 10.7873 47.5434 18.1406 50.1191C18.3679 51.5844 18.8622 53.0988 19.6404 54.4571C20.6193 56.1655 22.166 57.7927 24.3136 58.6482C24.3314 58.706 24.3508 58.7637 24.3718 58.8212C25.6061 62.2059 27.8126 67.6513 31.8984 72.0865C36.1154 76.6641 42.3049 80.1167 51.0464 79.3473C66.7782 77.9627 77.288 65.0365 74.7265 50.4345C79.8434 48.2881 83.2342 42.6819 82.2718 37.1929C80.9568 29.6925 74.3184 24.5522 66.4059 25.605C59.4488 26.5306 54.2963 32.3158 54.7548 39.3467C55.1995 46.1661 61.2484 51.2277 67.8076 51.5404C69.6478 61.9139 62.4211 71.3191 50.4327 72.3743C44.1585 72.9265 40.0132 70.5639 37.0468 67.3437C34.5062 64.5859 32.8213 61.1739 31.6489 58.2575C32.0274 58.0442 32.3867 57.7997 32.7256 57.5263C34.0435 56.4627 34.8916 55.094 35.4518 53.8206C36.1679 52.1925 36.5451 50.4064 36.7596 48.875C49.5972 42.89 56.2167 28.9857 52.2408 15.6906C52.8182 14.9248 53.2756 14.0696 53.5773 13.1271C54.1549 11.323 54.0803 9.45413 53.5237 7.6756C51.8844 2.43748 45.8658 -0.175436 40.8603 1.75474C36.4851 3.44186 33.9863 7.80487 35.1015 12.4463C35.9218 15.8607 38.7812 17.9739 41.4555 18.8455C42.8117 19.2876 44.3774 19.4971 45.946 19.3243C48.0122 29.1369 42.5845 39.229 32.2471 43.1896C30.5775 43.8293 28.6439 44.2469 26.3948 44.3452C24.8507 44.4127 23.489 44.291 22.2856 44.0296C16.3816 42.7467 11.8048 38.0764 9.4275 32.0209C7.63543 27.4562 7.24287 22.4637 8.31394 18.1492C8.76397 18.3313 9.22893 18.4741 9.7076 18.5773C11.866 19.0428 13.8811 18.6089 15.37 18.1371C18.1604 17.2529 20.0878 15.2502 20.8988 12.8012C21.6839 10.4302 21.3669 7.82634 20.1332 5.66452ZM11.1834 11.7346C10.9538 11.6851 10.5551 11.555 10.0401 10.9234C9.87238 9.82065 10.3745 8.79929 11.6728 8.16768C12.3297 7.84808 12.6991 7.92497 12.9255 8.01496C13.2358 8.1383 13.6735 8.46811 14.0536 9.13411C14.3594 9.67007 14.3799 10.2194 14.2536 10.6009C14.1531 10.9043 13.9204 11.2534 13.2555 11.4641C12.242 11.7853 11.6033 11.8252 11.1834 11.7346ZM27.6599 52.2717C26.9739 52.2717 26.4342 52.0086 25.9609 51.3605C26.2057 51.3567 26.4522 51.3494 26.7005 51.3385C27.478 51.3045 28.237 51.2409 28.9773 51.1485C28.7277 51.6746 28.4917 51.948 28.3294 52.0789C28.2127 52.1731 28.0523 52.2717 27.6599 52.2717ZM43.3787 8.28599C44.8541 7.71707 46.4883 8.63214 46.8432 9.76634C47.0311 10.3666 46.9893 10.747 46.9107 10.9927C46.8303 11.2436 46.6282 11.6113 46.0831 12.0418C45.6973 12.3375 44.7945 12.5714 43.6246 12.1901C42.4338 11.802 41.982 11.1201 41.9078 10.8109C41.6603 9.78091 42.083 8.78566 43.3787 8.28599ZM67.3291 32.5439C71.4404 31.9969 74.6961 34.518 75.377 38.4017C75.8418 41.0528 73.4083 44.2458 70.3697 44.3437C70.1608 44.3504 69.9529 44.3758 69.7485 44.4196C65.814 45.2634 61.9577 42.2304 61.74 38.8912C61.5395 35.8168 63.7381 33.0216 67.3291 32.5439ZM31.7842 23.7337C31.5504 25.5346 30.2335 26.8634 28.8428 26.7017C27.4522 26.54 26.5143 24.949 26.7482 23.1482C26.982 21.3474 28.2989 20.0186 29.6896 20.1803C31.0802 20.342 32.018 21.9329 31.7842 23.7337ZM23.5109 26.6836C24.8841 26.4202 25.6885 24.7652 25.3076 22.987C24.9267 21.2087 23.5048 19.9808 22.1316 20.2442C20.7584 20.5076 19.9539 22.1626 20.3348 23.9408C20.7157 25.719 22.1377 26.947 23.5109 26.6836ZM20.678 28.1855C21.0169 29.9713 20.1736 31.6089 18.7945 31.8433C17.4155 32.0776 16.0228 30.8199 15.6839 29.0341C15.3451 27.2483 16.1883 25.6106 17.5674 25.3763C18.9464 25.142 20.3391 26.3997 20.678 28.1855ZM25.21 29.291C29.3268 29.0617 33.5762 35.7559 31.6937 37.8134C30.6115 38.9962 29.5806 38.4046 28.4714 37.768C27.6511 37.2972 26.788 36.8019 25.8297 36.9815C25.2765 37.0851 24.6337 37.2887 23.971 37.4986C21.933 38.1439 19.7064 38.849 19.319 36.8921C18.8057 34.2989 21.4015 29.5031 25.21 29.291ZM32.5901 31.8312C33.9259 32.2315 35.4779 31.1538 36.0568 29.4241C36.6356 27.6944 36.022 25.9677 34.6863 25.5674C33.3505 25.1671 31.7985 26.2448 31.2196 27.9745C30.6408 29.7042 31.2544 31.4309 32.5901 31.8312Z" fill="#FFDE59"/>
</svg>
