<svg width="57" height="56" viewBox="0 0 57 56" fill="none" xmlns="http://www.w3.org/2000/svg">
<path d="M28.9061 22.3052C25.7758 22.3052 23.2229 24.8581 23.2229 27.9884C23.2229 31.1184 25.7758 33.6713 28.9061 33.6713C32.0361 33.6713 34.589 31.1184 34.589 27.9884C34.589 24.8581 32.0361 22.3052 28.9061 22.3052Z" fill="#703748"/>
<path d="M36.5426 14.0464H21.2692C17.8059 14.0464 14.9644 16.8658 14.9644 20.3512V35.6246C14.9644 39.0879 17.7838 41.9294 21.2692 41.9294H36.5426C40.0058 41.9294 42.8474 39.11 42.8474 35.6246V20.3512C42.8253 16.8658 40.0058 14.0464 36.5426 14.0464ZM28.906 36.535C24.1772 36.535 20.3367 32.6941 20.3367 27.9656C20.3367 23.2371 24.1772 19.3966 28.906 19.3966C33.6345 19.3966 37.4751 23.2371 37.4751 27.9656C37.4529 32.6941 33.6121 36.535 28.906 36.535ZM38.0743 20.8395C36.9422 20.8395 36.0097 19.9073 36.0097 18.7749C36.0097 17.6428 36.9422 16.7105 38.0743 16.7105C39.2067 16.7105 40.139 17.6428 40.139 18.7749C40.139 19.9294 39.2289 20.8395 38.0743 20.8395Z" fill="#703748"/>
<mask id="mask0_209_196" style="mask-type:luminance" maskUnits="userSpaceOnUse" x="3" y="2" width="52" height="52">
<path d="M3.26538 2.34717H54.5469V53.6286H3.26538V2.34717Z" fill="white"/>
</mask>
<g mask="url(#mask0_209_196)">
<path d="M28.9061 2.34717C14.7425 2.34717 3.26538 13.8243 3.26538 27.9879C3.26538 42.1513 14.7425 53.6286 28.9061 53.6286C43.0695 53.6286 54.5469 42.1513 54.5469 27.9879C54.5244 13.8243 43.0474 2.34717 28.9061 2.34717ZM45.7113 35.6244C45.7113 40.6859 41.582 44.8152 36.5205 44.8152H21.2693C16.2078 44.8152 12.0786 40.6859 12.0786 35.6244V20.3511C12.0786 15.2896 16.2078 11.1604 21.2693 11.1604H36.5427C41.6042 11.1604 45.7334 15.2896 45.7334 20.3511V35.6244H45.7113Z" fill="#703748"/>
</g>
</svg>
