<svg width="106" height="97" viewBox="0 0 106 97" fill="none" xmlns="http://www.w3.org/2000/svg">
<path fill-rule="evenodd" clip-rule="evenodd" d="M17.6481 45.1194C17.6481 43.1864 16.0811 41.6194 14.1481 41.6194C12.2151 41.6194 10.6481 43.1864 10.6481 45.1194V85.5611C10.6481 92.1207 16.3178 96.9736 22.7151 96.9736H83.1599C89.5572 96.9736 95.2269 92.1207 95.2269 85.5611V45.1194C95.2269 43.1864 93.6599 41.6194 91.7269 41.6194C89.7939 41.6194 88.2269 43.1864 88.2269 45.1194V85.5611C88.2269 87.6195 86.4428 89.7243 83.6635 89.9531C84.1217 88.834 84.2276 87.5695 84.2276 86.374C84.2276 83.8186 83.1697 82.0204 81.6383 80.9361C80.4579 80.1003 79.1282 79.7782 78.0801 79.6934C78.6809 78.8158 79.232 77.838 79.7918 76.8206C80.4981 75.537 81.4086 74.5276 82.1735 73.7492C82.2777 73.6431 82.3929 73.528 82.5097 73.4113L82.51 73.411L82.5103 73.4107C82.7637 73.1576 83.025 72.8966 83.2008 72.7011C83.3216 72.5666 83.5563 72.2999 83.7258 71.968C83.8115 71.8001 83.9631 71.4603 83.9767 71.0121C83.9929 70.4797 83.8068 69.9007 83.3565 69.4542C83 69.1008 82.5881 68.9623 82.5051 68.9343L82.4964 68.9314C82.3416 68.8782 82.1916 68.8418 82.0775 68.817C81.8427 68.7658 81.5723 68.7239 81.3109 68.6889C80.7781 68.6175 80.1204 68.5538 79.5002 68.5011C78.8738 68.4479 78.2593 68.4037 77.8032 68.373L77.5804 68.3582L72.9858 65.3217C72.9448 64.8174 72.8841 64.168 72.7996 63.4973C72.7087 62.7763 72.5833 61.9738 72.41 61.2864C72.3243 60.9466 72.2116 60.5723 72.0577 60.2275C71.9388 59.9609 71.6508 59.3652 71.0455 58.9652C70.1927 58.4016 69.3464 58.6726 69.0941 58.77C68.778 58.892 68.5361 59.0653 68.4029 59.1676C68.1151 59.3885 67.8371 59.6711 67.6083 59.9198C67.1292 60.4403 66.5767 61.1317 66.0755 61.7861C65.7505 62.2104 65.4334 62.6372 65.1528 63.0209C57.5317 58.3063 50.0626 58.14 42.6508 58.9216C35.7769 59.6465 31.2623 61.9243 28.7197 65.2851C26.1731 68.6514 25.9147 72.6929 26.6639 76.2668C26.9501 77.632 27.5963 78.9752 28.295 80.1147C26.7264 80.1909 25.3694 80.4296 24.2544 80.8964C23.1611 81.354 22.2316 82.0574 21.6012 83.0795C20.9816 84.0839 20.7581 85.2222 20.7581 86.374C20.7581 87.4924 20.8504 88.6997 21.3003 89.8044C19.0484 89.2447 17.6481 87.3847 17.6481 85.5611V45.1194ZM42.6354 10.2654C47.8731 5.99168 55.369 5.90427 60.7049 10.0547L99.7738 40.4436C101.3 41.6304 103.499 41.3556 104.685 39.8298C105.872 38.304 105.597 36.1051 104.072 34.9183L65.0027 4.52936C57.0909 -1.62471 45.9762 -1.4951 38.21 4.84179L1.28739 34.9691C-0.210299 36.1912 -0.433745 38.396 0.788306 39.8937C2.01036 41.3913 4.21514 41.6148 5.71283 40.3927L42.6354 10.2654ZM48.5855 25.812V22.0811V21.7367C48.5855 20.6321 49.4809 19.7367 50.5855 19.7367H54.6608C55.7653 19.7367 56.6608 20.6321 56.6608 21.7367V25.812C56.6608 26.9165 57.5562 27.812 58.6608 27.812H62.4755C63.5801 27.812 64.4755 28.7074 64.4755 29.812V33.8872C64.4755 34.9918 63.5801 35.8872 62.4755 35.8872H58.6608C57.5562 35.8872 56.6608 36.7827 56.6608 37.8872V41.702C56.6608 42.8066 55.7653 43.702 54.6608 43.702H50.5855C49.4809 43.702 48.5855 42.8066 48.5855 41.702V37.8872C48.5855 36.7827 47.6901 35.8872 46.5855 35.8872H42.5102C41.4056 35.8872 40.5102 34.9918 40.5102 33.8872V29.812C40.5102 28.7074 41.4056 27.812 42.5102 27.812H46.5855C47.6901 27.812 48.5855 26.9165 48.5855 25.812ZM62.0235 65.8191C55.8495 62.365 49.74 62.1962 43.0703 62.8995C36.8218 63.5585 33.5431 65.5394 31.9097 67.6984C30.2805 69.852 29.9804 72.5915 30.5788 75.4462C30.7662 76.34 31.2928 77.421 31.9884 78.4672C32.6772 79.5033 33.4157 80.3327 33.8604 80.729C34.4985 81.2974 35.13 81.4924 36.7118 81.4399C37.3044 81.4202 37.9452 81.3703 38.7199 81.3099L38.7217 81.3097C39.0507 81.2841 39.4039 81.2565 39.7878 81.2287C41.0398 81.1377 42.5135 81.0527 44.2565 81.0527C49.4418 81.0527 52.4656 80.4699 54.1077 79.8122C54.6366 79.6003 54.9728 79.4004 55.1809 79.2456C54.7592 79.0416 54.1449 78.8376 53.381 78.6804C51.7448 78.3438 49.808 78.2988 48.332 78.6365C44.4526 79.5239 40.8007 79.8186 35.4502 78.64C34.3715 78.4024 33.6897 77.3353 33.9273 76.2566C34.1649 75.1779 35.232 74.496 36.3107 74.7337C41.0114 75.7691 44.0602 75.5103 47.44 74.7372C49.5936 74.2445 52.1239 74.338 54.1871 74.7625C55.225 74.976 56.24 75.2923 57.0828 75.7244C57.826 76.1055 58.8746 76.7979 59.2744 77.9866C59.4584 78.5335 59.5038 79.1056 59.4119 79.6688H59.4546H59.5073H59.56H59.6128H59.6657H59.7187H59.7718H59.8249H59.8782H59.9315H59.9848H60.0383H60.0918H60.1454H60.1991H60.2529H60.3067H60.3606H60.4145H60.4685H60.5226H60.5768H60.631H60.6853H60.7397H60.7941H60.8485H60.9031H60.9577H61.0123H61.067H61.1218H61.1766H61.2315H61.2864H61.3414H61.3965H61.4515H61.5067H61.5619H61.6171H61.6724H61.7277H61.7831H61.8385H61.894H61.9495H62.005H62.0606H62.1163H62.1719H62.2276H62.2834H62.3392H62.395H62.4035C61.0107 78.1953 59.944 76.4751 59.3919 74.8332C58.6062 72.4964 59.1393 70.1049 60.206 68.2015C60.6912 67.3357 61.3094 66.5267 62.0235 65.8191ZM69.0624 66.5521L69.0623 66.5507L69.0618 66.5419L69.0596 66.503C69.0576 66.468 69.0544 66.415 69.05 66.3467C69.0413 66.2099 69.0277 66.0118 69.0089 65.7717C68.9844 65.458 68.9512 65.0772 68.9085 64.6704C68.557 65.1389 68.2268 65.5924 67.9637 65.9585C67.7906 66.1993 67.6478 66.4006 67.5487 66.5412C67.4991 66.6114 67.4606 66.6664 67.4346 66.7034L67.4055 66.7451L67.3984 66.7553L67.3968 66.7575L67.3965 66.7579C67.1898 67.055 66.9064 67.2905 66.5764 67.4391C65.4608 67.9419 64.3752 68.9441 63.6954 70.157C63.0172 71.3672 62.8523 72.5739 63.1833 73.5584C63.6147 74.8412 64.6489 76.4185 66.0881 77.667C67.5235 78.912 69.1702 79.6688 70.7804 79.6688C72.2783 79.6688 73.051 79.3142 73.6918 78.7367C74.473 78.0326 75.1898 76.8868 76.2873 74.8923C76.8187 73.9265 77.4227 73.0943 78.0007 72.3964C77.8332 72.3844 77.6762 72.3735 77.5343 72.364C77.4182 72.3561 77.3125 72.3492 77.2199 72.3432C77.1364 72.3378 77.0635 72.3332 77.003 72.3295L76.856 72.3205L76.8182 72.3182L76.8089 72.3177L76.8067 72.3175L76.8063 72.3175C76.4543 72.297 76.1141 72.1838 75.82 71.9895L69.9568 68.1146C69.4279 67.765 69.0961 67.1854 69.0624 66.5523L69.0624 66.5521ZM80.2731 69.9718C80.2732 69.9719 80.2708 69.9751 80.2653 69.9818C80.2702 69.9752 80.2731 69.9718 80.2731 69.9718ZM68.4048 61.8573L68.4074 61.8633C68.398 61.8467 68.3926 61.8354 68.3907 61.8306C68.3878 61.8234 68.393 61.8308 68.4048 61.8573ZM31.7655 84.1717C28.6612 83.9642 26.8212 84.1582 25.7988 84.5862C25.3215 84.7859 25.1167 84.9993 25.0056 85.1795C24.8835 85.3773 24.7581 85.7267 24.7581 86.374C24.7581 88.0677 25.0487 88.5351 25.368 88.7905C25.8619 89.1853 27.1025 89.6317 30.2851 89.6327L78.2957 89.0793L78.3188 89.0792C79.5225 89.0792 79.7595 88.776 79.8265 88.6868C80.0042 88.4506 80.2276 87.8496 80.2276 86.374C80.2276 85.0545 79.7498 84.5 79.3268 84.2005C78.7919 83.8218 78.0544 83.6688 77.4812 83.6688H77.4732H77.4649H77.4563H77.4474H77.4382H77.4287H77.4189H77.4088H77.3984H77.3878H77.3768H77.3656H77.354H77.3422H77.3301H77.3177H77.305H77.292H77.2787H77.2652H77.2514H77.2373H77.2229H77.2082H77.1932H77.178H77.1625H77.1467H77.1307H77.1144H77.0978H77.0809H77.0638H77.0463H77.0287H77.0107H76.9925H76.974H76.9553H76.9362H76.917H76.8974H76.8776H76.8576H76.8372H76.8166H76.7958H76.7747H76.7533H76.7317H76.7099H76.6878H76.6654H76.6428H76.6199H76.5968H76.5734H76.5498H76.5259H76.5018H76.4774H76.4528H76.428H76.4029H76.3776H76.352H76.3262H76.3002H76.2739H76.2474H76.2206H76.1936H76.1664H76.1389H76.1112H76.0833H76.0552H76.0268H75.9982H75.9693H75.9403H75.911H75.8815H75.8517H75.8218H75.7916H75.7612H75.7306H75.6997H75.6686H75.6374H75.6059H75.5742H75.5423H75.5101H75.4778H75.4452H75.4124H75.3795H75.3463H75.3129H75.2793H75.2455H75.2114H75.1772H75.1428H75.1082H75.0733H75.0383H75.0031H74.9677H74.932H74.8962H74.8602H74.824H74.7876H74.751H74.7142H74.6772H74.6401H74.6027H74.5652H74.5274H74.4895H74.4514H74.4131H74.3746H74.336H74.2971H74.2581H74.2189H74.1796H74.14H74.1003H74.0604H74.0203H73.98H73.9396H73.899H73.8582H73.8173H73.7761H73.7349H73.6934H73.6518H73.61H73.5681H73.5259H73.4837H73.4412H73.3986H73.3559H73.3129H73.2699H73.2266H73.1832H73.1397H73.096H73.0521H73.0081H72.964H72.9196H72.8752H72.8306H72.7858H72.7409H72.6959H72.6507H72.6053H72.5598H72.5142H72.4684H72.4225H72.3765H72.3303H72.2839H72.2375H72.1909H72.1441H72.0973H72.0503H72.0031H71.9559H71.9085H71.8609H71.8133H71.7655H71.7176H71.6695H71.6214H71.5731H71.5247H71.4762H71.4275H71.3787H71.3298H71.2808H71.2317H71.1825H71.1331H71.0836H71.034H70.9843H70.9345H70.8846H70.8346H70.7844H70.7804H70.7342H70.6838H70.6334H70.5828H70.5321H70.4813H70.4305H70.3795H70.3284H70.2772H70.2259H70.1746H70.1231H70.0715H70.0198H69.9681H69.9162H69.8643H69.8122H69.7601H69.7079H69.6556H69.6032H69.5507H69.4981H69.4455H69.3928H69.3399H69.287H69.2341H69.181H69.1279H69.0746H69.0213H68.968H68.9145H68.861H68.8074H68.7537H68.7H68.6462H68.5923H68.5384H68.4843H68.4303H68.3761H68.3219H68.2676H68.2133H68.1589H68.1044H68.0499H67.9953H67.9406H67.8859H67.8311H67.7763H67.7215H67.6665H67.6115H67.5565H67.5014H67.4463H67.3911H67.3359H67.2806H67.2253H67.1699H67.1145H67.059H67.0035H66.948H66.8924H66.8368H66.7811H66.7254H66.6696H66.6139H66.5581H66.5022H66.4463H66.3904H66.3345H66.2785H66.2225H66.1664H66.1104H66.0543H65.9982H65.942H65.8859H65.8297H65.7735H65.7172H65.661H65.6047H65.5484H65.4921H65.4358H65.3794H65.3231H65.2667H65.2103H65.1539H65.0975H65.0411H64.9847H64.9282H64.8718H64.8153H64.7589H64.7024H64.646H64.5895H64.533H64.4765H64.4201H64.3636H64.3071H64.2507H64.1942H64.1378H64.0813H64.0249H63.9684H63.912H63.8556H63.7992H63.7428H63.6864H63.63H63.5737H63.5173H63.461H63.4047H63.3484H63.2921H63.2358H63.1796H63.1234H63.0672H63.011H62.9549H62.8988H62.8427H62.7866H62.7306H62.6746H62.6186H62.5626H62.5067H62.4508H62.395H62.3392H62.2834H62.2276H62.1719H62.1163H62.0606H62.005H61.9495H61.894H61.8385H61.7831H61.7277H61.6724H61.6171H61.5619H61.5067H61.4515H61.3965H61.3414H61.2864H61.2315H61.1766H61.1218H61.067H61.0123H60.9577H60.9031H60.8485H60.7941H60.7397H60.6853H60.631H60.5768H60.5226H60.4685H60.4145H60.3606H60.3067H60.2529H60.1991H60.1454H60.0918H60.0383H59.9848H59.9315H59.8782H59.8249H59.7718H59.7187H59.6657H59.6128H59.56H59.5073H59.4546H59.402H59.3495H59.2971H59.2448H59.1926H59.1405H59.0884H59.0365H58.9846H58.9328H58.8812H58.8296H58.7781H58.7267H58.6754H58.6242H58.5731H58.5221H58.4713H58.4205H58.3698H58.3192H58.2687H58.2184H58.1681H58.118H58.0679H58.018H57.9682H57.9184H57.8689H57.8194H57.77H57.7207H57.6716H57.6226H57.5737H57.5249H57.4762H57.4277H57.3793H57.331H57.2828H57.2348H57.1868H57.139H57.0914H57.0438H56.9964H56.9491H56.902H56.855H56.8081H56.7614H56.7147H56.6683H56.6219H56.5757H56.5297H56.4837H56.4379H56.3923H56.3468H56.3014H56.2562H56.2112H56.1663H56.1215H56.0769H56.0324H55.9881H55.9439H55.8998H55.856H55.8123H55.7687H55.7253H55.682H55.639H55.596H55.5532H55.5106H55.4682H55.4259H55.3838H55.3418H55.3H55.2584H55.2194C52.8797 84.5202 49.3653 85.0527 44.2565 85.0527C42.6468 85.0527 41.2782 85.1309 40.0776 85.2181C39.7597 85.2412 39.445 85.2657 39.1362 85.2898L39.1305 85.2903L39.1273 85.2905L39.1271 85.2905C38.3088 85.3543 37.5317 85.4149 36.8445 85.4377C35.0524 85.4971 33.3613 85.3276 31.7655 84.1717Z" fill="#FFDE59"/>
</svg>
