<svg width="80" height="79" viewBox="0 0 80 79" fill="none" xmlns="http://www.w3.org/2000/svg">
<path d="M50.6032 16.3111C51.2713 19.783 49.7561 22.9933 47.2189 23.4816C44.6818 23.9698 42.0834 21.551 41.4153 18.0791C40.7473 14.6072 42.2625 11.3969 44.7996 10.9087C47.3368 10.4204 49.9352 12.8392 50.6032 16.3111Z" fill="#703748"/>
<path d="M58.9866 18.3614C66.5718 17.8204 74.5692 30.7668 71.1479 34.819C67.7266 38.8711 64.4615 32.4576 60.3153 33.3323C56.169 34.207 49.3176 38.3485 48.3083 33.3073C47.2989 28.2661 51.9692 18.8619 58.9866 18.3614Z" fill="#703748"/>
<path d="M59.0139 6.07569C59.7593 9.53183 58.3161 12.7751 55.7905 13.3198C53.2648 13.8645 50.6131 11.5043 49.8678 8.04821C49.1224 4.59207 50.5656 1.34875 53.0912 0.804056C55.6169 0.259359 58.2685 2.61955 59.0139 6.07569Z" fill="#703748"/>
<path d="M70.974 7.38246C70.5865 10.8968 68.1904 13.5161 65.6223 13.2329C63.0542 12.9497 61.2864 9.8712 61.674 6.3569C62.0615 2.8426 64.4576 0.223276 67.0257 0.506478C69.5938 0.78968 71.3616 3.86816 70.974 7.38246Z" fill="#703748"/>
<path d="M78.9899 18.3723C77.9644 21.7559 75.1286 23.8914 72.656 23.1421C70.1833 22.3927 69.0101 19.0422 70.0356 15.6586C71.0611 12.275 73.8968 10.1395 76.3695 10.8889C78.8421 11.6382 80.0153 14.9887 78.9899 18.3723Z" fill="#703748"/>
<path d="M9.6633 58.3756C10.3314 61.8475 8.81616 65.0578 6.279 65.546C3.74183 66.0342 1.14348 63.6154 0.475408 60.1435C-0.19266 56.6716 1.32254 53.4613 3.85971 52.9731C6.39687 52.4849 8.99523 54.9037 9.6633 58.3756Z" fill="#703748"/>
<path d="M18.0466 60.4259C25.6318 59.8849 33.6292 72.8313 30.208 76.8834C26.7867 80.9356 23.5216 74.522 19.3754 75.3967C15.2291 76.2714 8.37771 80.413 7.36831 75.3717C6.35892 70.3305 11.0293 60.9264 18.0466 60.4259Z" fill="#703748"/>
<path d="M18.074 48.1401C18.8193 51.5963 17.3762 54.8396 14.8505 55.3843C12.3249 55.929 9.6732 53.5688 8.92782 50.1127C8.18245 46.6565 9.62564 43.4132 12.1513 42.8685C14.6769 42.3238 17.3286 44.684 18.074 48.1401Z" fill="#703748"/>
<path d="M30.0341 49.4469C29.6466 52.9612 27.2505 55.5805 24.6824 55.2973C22.1142 55.0141 20.3465 51.9356 20.734 48.4213C21.1216 44.9071 23.5176 42.2877 26.0858 42.5709C28.6539 42.8541 30.4216 45.9326 30.0341 49.4469Z" fill="#703748"/>
<path d="M38.0499 60.4368C37.0245 63.8204 34.1887 65.9559 31.716 65.2065C29.2434 64.4572 28.0702 61.1067 29.0957 57.7231C30.1211 54.3394 32.9569 52.204 35.4295 52.9533C37.9022 53.7027 39.0754 57.0531 38.0499 60.4368Z" fill="#703748"/>
</svg>
