<svg width="82" height="94" viewBox="0 0 82 94" fill="none" xmlns="http://www.w3.org/2000/svg">
<path fill-rule="evenodd" clip-rule="evenodd" d="M31.077 20.1098C31.077 13.9247 36.091 8.91077 42.276 8.91077C48.4611 8.91077 53.475 13.9247 53.475 20.1098V24.5206H31.077V20.1098ZM61.475 20.1098V25.439C71.2628 28.1715 78.7012 36.7218 79.6452 47.2983L81.3332 66.2117C82.6386 80.8379 71.1166 93.4341 56.4322 93.4341H25.7059C10.9449 93.4341 -0.602549 80.7122 0.822727 66.0202L2.70229 46.6452C3.78843 35.449 12.3005 26.6212 23.077 24.8467V20.1098C23.077 9.50646 31.6727 0.910767 42.276 0.910767C52.8794 0.910767 61.475 9.50646 61.475 20.1098ZM10.6649 47.4177C11.4847 38.9673 18.587 32.5206 27.077 32.5206H54.7442C63.5473 32.5206 70.8943 39.2411 71.6769 48.0094L73.3649 66.9229C74.2525 76.8687 66.4176 85.4341 56.4322 85.4341H25.7059C15.6684 85.4341 7.81616 76.7832 8.78535 66.7926L10.6649 47.4177ZM48.2541 53.84C47.9648 56.1058 46.3906 57.7708 44.738 57.559C43.0854 57.3472 41.9803 55.3387 42.2696 53.0729C42.5589 50.8071 44.1331 49.142 45.7857 49.3538C47.4383 49.5657 48.5434 51.5742 48.2541 53.84ZM38.3981 57.5046C40.0326 57.1811 40.9995 55.1023 40.5577 52.8613C40.116 50.6203 38.4328 49.0658 36.7984 49.3893C35.1639 49.7127 34.197 51.7916 34.6388 54.0326C35.0805 56.2736 36.7637 57.828 38.3981 57.5046ZM35.0202 59.3785C35.4119 61.6288 34.399 63.6856 32.7577 63.9724C31.1164 64.2592 29.4684 62.6675 29.0766 60.4172C28.6849 58.1669 29.6978 56.1102 31.3391 55.8234C32.9804 55.5365 34.6284 57.1282 35.0202 59.3785ZM40.4022 60.7973C45.2987 60.5331 50.3095 68.9862 48.0582 71.5653C46.764 73.0479 45.5419 72.297 44.227 71.489C43.2546 70.8914 42.2314 70.2627 41.0908 70.4831C40.4324 70.6103 39.6667 70.8627 38.8774 71.123C36.45 71.9234 33.7981 72.7978 33.3497 70.3318C32.7555 67.064 35.8722 61.0417 40.4022 60.7973ZM49.1616 64.0392C50.7474 64.5511 52.5997 63.2036 53.2988 61.0293C53.9979 58.8551 53.2792 56.6776 51.6934 56.1657C50.1076 55.6538 48.2553 57.0014 47.5562 59.1756C46.857 61.3498 47.5758 63.5273 49.1616 64.0392Z" fill="#FFDE59"/>
</svg>
