<svg width="81" height="88" viewBox="0 0 81 88" fill="none" xmlns="http://www.w3.org/2000/svg">
<path fill-rule="evenodd" clip-rule="evenodd" d="M1.78217 1.56818C3.24856 0.308756 5.45828 0.476537 6.71771 1.94293L14.9865 11.5706C16.0626 11.1264 17.1782 10.8998 18.3182 10.8976C20.4902 10.8935 22.3467 11.7049 23.7749 12.6246C25.1082 13.4831 26.3179 14.6266 27.265 15.6344C32.5172 13.2032 38.9425 14.4548 42.8661 19.0752L64.4922 44.5415C67.248 47.7866 68.6949 51.7036 68.8859 55.6503L74.9262 50.3978C76.3849 49.1294 78.5956 49.2837 79.864 50.7423C81.1323 52.201 80.9781 54.4117 79.5195 55.6801L71.3287 62.8025L72.3598 64.5475C72.7928 65.2802 73.125 66.0477 73.3593 66.8326L74.8374 65.4858C76.2663 64.1839 78.48 64.2868 79.7819 65.7157C81.0837 67.1445 80.9808 69.3582 79.552 70.6601L62.378 86.3081C60.9492 87.6099 58.7355 87.507 57.4336 86.0782C56.1318 84.6493 56.2347 82.4357 57.6635 81.1338L59.71 79.2691C58.2933 78.7 56.9838 77.8052 55.9001 76.594L55.7112 76.3829L47.1665 83.813C45.7079 85.0814 43.4972 84.9272 42.2288 83.4685C40.9604 82.0099 41.1146 79.7992 42.5733 78.5308L46.8605 74.8028C42.9144 74.0531 39.1834 72.0236 36.3424 68.7655L13.1909 42.2156C9.71828 38.2333 9.46214 32.5607 12.1743 28.3438C12.0693 28.2208 11.9602 28.0923 11.8467 27.9576C11.045 27.0068 10.0489 25.7707 9.34313 24.3604C8.61063 22.8968 8.08204 21.0316 8.51004 18.9234C8.71343 17.9216 9.10815 16.9869 9.66067 16.1133L1.40742 6.50372C0.147989 5.03733 0.31577 2.82761 1.78217 1.56818ZM17.2053 23.4537L21.5686 19.8068C21.0848 19.3282 20.5645 18.883 19.9851 18.5099C19.2594 18.0427 18.7202 17.8969 18.3316 17.8976C18.0208 17.8982 17.4504 17.9869 16.5801 18.7484C15.5488 19.6508 15.3968 20.1844 15.3701 20.3161C15.3475 20.4273 15.3244 20.6711 15.6029 21.2276C15.9081 21.8374 16.4286 22.5325 17.1983 23.4454L17.2053 23.4537ZM58.9448 64.2947L56.804 66.1563C52.0261 69.3842 45.4934 68.6089 41.6183 64.165L18.4668 37.6151C16.7801 35.6808 17.0122 32.7382 18.9814 31.0923L28.8279 22.8624C31.4408 20.6784 35.3261 21.0106 37.5305 23.6063L37.5521 23.6318L31.2626 29.3495C29.8323 30.6497 29.7269 32.8633 31.0272 34.2936C32.3274 35.7239 34.541 35.8293 35.9713 34.529L42.0857 28.9705L45.3932 32.8653L39.0413 38.455C37.5902 39.732 37.449 41.9435 38.726 43.3947C40.003 44.8458 42.2146 44.987 43.6657 43.71L49.925 38.2018L54.65 43.7658L47.7711 50.1155C46.3507 51.4266 46.2622 53.6409 47.5733 55.0613C48.8844 56.4817 51.0987 56.5702 52.5191 55.2591L59.1849 49.1061C62.9509 53.5743 62.753 60.0671 58.9448 64.2947ZM60.994 71.7892L61.1168 71.9265C62.274 73.2198 64.2434 73.3749 65.5888 72.2787C66.834 71.264 67.1505 69.4915 66.3333 68.1086L65.9577 67.4729L63.8269 69.3257C63.3604 69.8176 62.8622 70.2889 62.3327 70.7369C61.9351 71.0734 61.5274 71.3903 61.1107 71.6877L60.994 71.7892Z" fill="#FFDE59"/>
</svg>
