<svg width="24" height="24" viewBox="0 0 24 24" fill="none" xmlns="http://www.w3.org/2000/svg">
<path fill-rule="evenodd" clip-rule="evenodd" d="M12.7709 13.5365C11.6124 12.7447 10.7013 11.6161 10.1666 10.3195L10.127 10.2304L10.1963 10.171C10.2854 10.1017 10.3746 10.0323 10.4637 9.96305C10.7013 9.7849 10.7706 9.4583 10.6815 9.18104C10.4933 8.58722 10.3944 7.96358 10.3746 7.33993C10.3647 7.00343 10.1567 6.66693 9.81005 6.62734C9.622 6.60755 9.42393 6.58762 9.22585 6.56782C7.92866 6.35999 7.39395 8.08234 7.5622 9.09197C8.10681 12.3585 10.3448 15.1202 13.4245 16.318C14.3752 16.6941 16.1774 16.516 16.2367 15.1994C16.2565 15.0113 16.2763 14.8233 16.2961 14.6353C16.3259 14.2887 16.0288 14.0017 15.7119 13.9324C15.098 13.7939 14.5137 13.5662 13.9691 13.2593C13.7215 13.1207 13.3849 13.1207 13.1571 13.3187C13.0679 13.3979 12.9789 13.4671 12.8898 13.5365L12.8204 13.5959L12.7412 13.5464L12.7709 13.5365ZM12.0381 0.5C18.2667 0.5 23.317 5.5483 23.317 11.7746C23.317 18.0008 18.2667 23.0491 12.0381 23.0491C9.15657 23.0491 6.52247 21.97 4.53209 20.1883L0.679976 20.9307C-0.0627072 21.0693 -0.15178 20.713 0.194751 20.0596L1.51187 15.8131C1.02664 14.5561 0.769185 13.1999 0.769185 11.7746C0.769185 5.5483 5.81938 0.5 12.048 0.5H12.0381ZM12.0678 3.15281C16.7616 3.15281 20.5741 6.96384 20.5741 11.6557C20.5741 16.3576 16.7616 20.1586 12.0678 20.1586C9.88936 20.1586 7.90887 19.3469 6.40371 18.0008L3.75971 18.5055C3.20521 18.6144 3.1259 18.3472 3.39325 17.8523L4.12604 14.7045C3.75971 13.7543 3.56164 12.7348 3.56164 11.6557C3.56164 6.95394 7.37402 3.15281 12.0678 3.15281Z" fill="#703748"/>
</svg>
