<svg width="43" height="40" viewBox="0 0 43 40" fill="none" xmlns="http://www.w3.org/2000/svg">
<path fill-rule="evenodd" clip-rule="evenodd" d="M23.5514 23.1256C21.4149 21.7209 19.7348 19.719 18.7487 17.4188L18.6757 17.2608L18.8035 17.1555C18.9677 17.0326 19.1322 16.9095 19.2965 16.7866C19.7348 16.4706 19.8625 15.8912 19.6983 15.3994C19.3513 14.346 19.1687 13.2397 19.1322 12.1334C19.114 11.5365 18.7305 10.9396 18.0911 10.8693C17.7444 10.8342 17.3791 10.7989 17.0138 10.7638C14.6216 10.3951 13.6355 13.4504 13.9458 15.2414C14.9501 21.0359 19.0772 25.9349 24.7567 28.0597C26.5099 28.7269 29.8334 28.4108 29.9429 26.0754C29.9794 25.7418 30.0159 25.4082 30.0524 25.0746C30.1074 24.4599 29.5594 23.9508 28.9751 23.8279C27.843 23.5821 26.7654 23.1783 25.761 22.6338C25.3045 22.388 24.6837 22.388 24.2637 22.7392C24.0992 22.8796 23.9349 23.0025 23.7706 23.1256L23.6426 23.231L23.4966 23.1432L23.5514 23.1256ZM22.2 0C33.6865 0 43 8.95521 43 20.0001C43 31.0448 33.6865 40 22.2 40C16.886 40 12.0284 38.0859 8.35783 34.9252L1.25397 36.2422C-0.115641 36.488 -0.279905 35.856 0.359149 34.697L2.7881 27.1641C1.89328 24.9342 1.41849 22.5285 1.41849 20.0001C1.41849 8.95521 10.7318 0 22.2182 0H22.2ZM22.2547 4.70584C30.9107 4.70584 37.9416 11.4663 37.9416 19.7892C37.9416 28.1299 30.9107 34.8726 22.2547 34.8726C18.2374 34.8726 14.5851 33.4327 11.8094 31.0448L6.93345 31.9402C5.91087 32.1333 5.76461 31.6593 6.25765 30.7814L7.60901 25.1975C6.93345 23.5119 6.56817 21.7033 6.56817 19.7892C6.56817 11.4487 13.5988 4.70584 22.2547 4.70584Z" fill="#ECE5DD"/>
</svg>
