<svg width="313" height="78" viewBox="0 0 313 78" fill="none" xmlns="http://www.w3.org/2000/svg">
<path d="M62.0023 22.6041C62.0023 22.6041 65.4826 11.3103 73.1395 0.369153C73.1395 0.369153 79.9022 -0.461442 80.4482 0.369153C81.1443 1.42796 78.0375 4.06838 78.7081 5.31033C79.1712 6.16802 81.0098 6.13245 81.8404 6.72208C85.3208 9.19267 88.6924 11.4467 89.8453 12.7221C93.6737 16.9574 93.6737 13.428 94.0217 16.9571C94.8536 25.3929 82.8845 22.9571 80.4482 22.6041C78.012 22.2512 78.7081 25.0747 79.0561 26.8394C79.4041 28.6041 82.1884 33.8982 83.9286 48.0159C85.6688 62.1335 77.6639 72.3688 78.012 69.1924C78.36 66.0159 76.6198 58.2512 76.6198 58.2512C76.6198 58.2512 75.2277 51.8982 72.7914 51.8982H50.517C50.633 57.1924 50.517 65.5218 50.517 66.3688C50.517 67.2159 50.517 73.4277 44.2523 73.4277H27.1985C23.0221 73.4277 21.2818 70.9571 21.2818 66.3688V52.2512H7.01231C1.79176 52.2512 0.13622 49.4277 0.0515625 46.2512C-0.06445 41.8982 0.0515564 33.9821 0.0515612 29.663C0.0515662 25.0747 2.83587 22.6041 7.01231 22.6041H21.2818C21.1658 18.7218 21.2818 11.0377 21.2818 7.07472C21.2818 2.83944 24.7622 1.07472 27.1985 1.07472H41.8161C46.6886 1.07472 49.821 2.83943 49.821 7.07472V22.6041H62.0023Z" fill="#703748"/>
<path d="M57.9666 36.3529C59.9156 28.4471 66.8996 22.9412 70.1479 21.1765V27.1765C73.2803 29.0588 79.7538 33.0353 80.5891 33.8823C81.6332 34.9412 87.8979 39.1765 87.5498 42C87.2018 44.8235 84.7655 46.9412 83.0253 46.9412C81.2851 46.9412 69.2467 45.1998 73.2803 48.7059C75.7165 50.8235 77.8291 57.1685 78.1528 58.2353C79.545 62.8235 78.5008 67.0588 79.545 70.2353C80.5891 73.4118 86.8537 78 85.8096 78C84.7655 78 74.3244 77.2941 70.1479 76.5882C65.9715 75.8823 59.0107 68.4706 56.9225 62.4706C54.8343 56.4706 55.5304 46.2353 57.9666 36.3529Z" fill="#F5F5F5"/>
<path d="M297.338 18.0088C296.739 16.208 294.493 14.7072 293.295 13.9569C291.649 15.6077 288.29 17.9444 288.804 18.4591C288.804 18.4591 290.458 19.7913 291.05 21.1604C291.82 22.9425 291.437 24.2182 291.05 26.1128C290.749 27.5844 290.151 27.9137 289.702 29.7146C289.375 31.0249 290.151 31.0652 291.499 30.615C292.846 30.1648 296.516 27.0133 297.338 24.7622C297.913 23.1865 298.062 20.1867 297.338 18.0088Z" fill="#703748"/>
<path d="M309.914 49.0741C307.668 50.6781 301.371 50.4185 300.033 49.5243C298.685 48.6238 298.236 45.0221 299.584 44.1216C300.907 43.237 306.646 45.4723 306.77 42.3207C306.826 40.9043 304.973 40.0696 303.177 38.719C301.38 37.3683 300.352 37.4814 299.584 35.1172C298.752 32.56 298.748 28.934 300.033 27.0132C301.318 25.0925 304.974 24.7621 304.974 24.7621C304.974 24.7621 310.064 24.4598 310.812 25.6625C311.648 27.0052 312.16 29.7146 311.261 30.615C310.363 31.5154 309.375 31.0652 307.219 31.0652C304.524 31.0652 305.383 33.7665 305.832 34.2167C306.281 34.6669 310.632 36.0872 312.12 38.719C314.41 42.769 311.711 47.7909 309.914 49.0741Z" fill="#703748"/>
<path fill-rule="evenodd" clip-rule="evenodd" d="M204.364 64.3816V13.0564H233.109C234.008 13.0564 246.584 16.6582 246.584 31.5155C246.584 43.4013 237.601 48.7739 233.109 49.9745H216.042V64.3816H204.364ZM281.618 17.1084H274.431V26.563H272.185V32.4159H275.329V47.7234C275.329 48.1736 276.377 50.4248 278.473 50.4248H285.66C286.558 50.4248 288.355 50.4248 288.355 49.5243V44.1217H281.618V32.4159H287.007V26.1128H281.618V17.1084ZM215.143 21.1604V41.8705H229.516C231.762 41.5704 236.253 39.0792 236.253 31.5154C236.253 23.2076 231.745 21.8523 230.042 21.3403C229.807 21.2696 229.625 21.215 229.516 21.1604C228.797 20.8002 219.635 21.0103 215.143 21.1604Z" fill="#703748"/>
<path fill-rule="evenodd" clip-rule="evenodd" d="M161.076 38.7225C162.937 38.7486 173.032 38.8903 173.81 38.0078C173.877 37.9324 173.941 37.8601 174.003 37.7901C175.211 36.4323 175.607 35.9865 175.607 31.7047C175.607 29.4537 173.326 24.312 166.14 23.8617C158.953 23.4114 154.059 30.9298 154.059 36.9181C154.059 39.6195 154.148 41.9656 157.202 45.4724C160.958 49.7847 169.33 49.1174 171.575 48.1738C173.776 47.2491 176.468 45.2859 176.516 44.5719C176.547 44.1217 174.27 40.5199 173.821 40.5199C173.669 40.5199 173.269 40.7838 172.715 41.1483C171.633 41.861 169.966 42.9586 168.431 43.2213C167.341 43.408 163.897 43.6288 162.143 41.8706C161.089 40.8142 160.951 39.7579 160.87 39.1323C160.847 38.958 160.829 38.8172 160.796 38.7191C160.829 38.7191 160.926 38.7204 161.076 38.7225ZM160.796 34.667H169.779C169.929 33.0162 168.881 29.7146 165.287 29.7146C160.796 29.7146 160.796 33.7666 160.796 34.667Z" fill="#703748"/>
<path fill-rule="evenodd" clip-rule="evenodd" d="M255.847 40.0925C257.708 40.1186 267.802 40.2603 268.581 39.3778C268.648 39.3024 268.712 39.23 268.774 39.1601C269.981 37.8023 270.378 37.3565 270.378 33.0747C270.378 30.8237 268.097 25.682 260.911 25.2317C253.724 24.7814 248.829 32.2998 248.83 38.2881C248.83 40.9895 248.919 43.3356 251.973 46.8424C255.729 51.1547 264.101 50.4874 266.346 49.5438C268.546 48.6191 271.238 46.6559 271.287 45.9419C271.317 45.4917 269.041 41.8899 268.592 41.8899C268.44 41.8899 268.039 42.1538 267.486 42.5182C266.404 43.231 264.737 44.3286 263.202 44.5913C262.111 44.778 258.668 44.9988 256.914 43.2406C255.86 42.1842 255.722 41.1279 255.641 40.5023C255.618 40.328 255.599 40.1872 255.567 40.0891C255.6 40.0891 255.697 40.0904 255.847 40.0925ZM255.567 36.037H264.55C264.7 34.3862 263.651 31.0846 260.058 31.0846C255.567 31.0846 255.567 35.1366 255.567 36.037Z" fill="#703748"/>
<path d="M106 64.3816V12.6062H116.33L141.033 45.9225V12.6062H152.262V63.4812H141.932L116.33 30.615V64.3816H106Z" fill="#703748"/>
<path fill-rule="evenodd" clip-rule="evenodd" d="M189.092 49.5243C195.79 49.5243 201.22 43.6787 201.22 36.4679C201.22 29.2571 195.79 23.4115 189.092 23.4115C182.395 23.4115 176.965 29.2571 176.965 36.4679C176.965 43.6787 182.395 49.5243 189.092 49.5243ZM189.542 42.3208C193.014 42.3208 195.83 39.4988 195.83 36.0177C195.83 32.5366 193.014 29.7146 189.542 29.7146C186.069 29.7146 183.254 32.5366 183.254 36.0177C183.254 39.4988 186.069 42.3208 189.542 42.3208Z" fill="#703748"/>
</svg>
